Coordinates
version=1
nRows=26
nColumns=30
inDegrees=yes

Units are S.I. units (second, meters, Newtons, ...)
Angles are in degrees.

endheader
time	floatyaw	floatroll	floatpitch	floatx	floaty	floatz	pro_sup_l	deviation_l	flexion_l	cmc_flexion_l	cmc_abduction_l	mp_flexion_l	ip_flexion_l	2mcp_flexion_l	2mcp_abduction_l	2pm_flexion_l	2md_flexion_l	3mcp_flexion_l	3mcp_abduction_l	3pm_flexion_l	3md_flexion_l	4mcp_flexion_l	4mcp_abduction_l	4pm_flexion_l	4md_flexion_l	5mcp_flexion_l	5mcp_abduction_l	5pm_flexion_l	5md_flexion_l
-0.495000	-160.147433	-5.066637	-73.570646	0.078627	-0.180215	-0.020650	98.115021	0.045289	-0.743383	14.838978	0.298880	-25.106994	-40.634997	30.461483	6.657792	41.679107	29.055994	23.688572	3.949360	43.303310	28.786009	13.255261	-4.413195	51.262685	35.203230	-0.158796	-7.315921	61.498891	41.883629
-0.485000	-160.147433	-5.066637	-73.570646	0.078633	-0.180209	-0.020650	98.122009	0.048416	-0.740582	14.834524	0.273704	-25.102872	-40.644649	30.465673	6.662207	41.672843	29.052800	23.694704	3.946887	43.300347	28.781347	13.256036	-4.412463	51.261973	35.196711	-0.151910	-7.313421	61.494084	41.859971
-0.475000	-160.147433	-5.066637	-73.570646	0.078639	-0.180203	-0.020649	98.118609	0.046412	-0.734342	14.834239	0.262295	-25.098884	-40.648363	30.462963	6.665517	41.683454	29.059830	23.701157	3.944911	43.296649	28.775968	13.250943	-4.410990	51.264291	35.192531	-0.151838	-7.310750	61.495887	41.846770
-0.465000	-160.147433	-5.066637	-73.570646	0.078644	-0.180197	-0.020648	98.105902	0.039993	-0.724173	14.834285	0.261528	-25.095676	-40.643662	30.457572	6.667298	41.703116	29.071624	23.707100	3.943072	43.294482	28.771508	13.239173	-4.409076	51.271138	35.191954	-0.159399	-7.308666	61.504043	41.846543
-0.455000	-160.147433	-5.066637	-73.570646	0.078646	-0.180187	-0.020646	98.089655	0.032044	-0.711067	14.831323	0.264744	-25.093843	-40.632284	30.455452	6.668029	41.720844	29.079840	23.712472	3.940943	43.295650	28.768669	13.222647	-4.407263	51.283933	35.195090	-0.171399	-7.308160	61.516582	41.856595
-0.445000	-160.147433	-5.066637	-73.570646	0.078647	-0.180174	-0.020644	98.077012	0.025422	-0.696825	14.823735	0.267203	-25.094353	-40.619581	30.461224	6.669081	41.727730	29.077611	23.717596	3.938362	43.300807	28.767295	13.204918	-4.406174	51.303364	35.201181	-0.182607	-7.310125	61.531151	41.870979
-0.435000	-160.147433	-5.066637	-73.570646	0.078645	-0.180157	-0.020643	98.072606	0.020781	-0.683467	14.811920	0.269669	-25.098762	-40.612405	30.476397	6.672119	41.720964	29.063189	23.722778	3.935514	43.309741	28.767161	13.189736	-4.406340	51.328816	35.209115	-0.188285	-7.314929	61.546053	41.883582
-0.425000	-160.147433	-5.066637	-73.570646	0.078640	-0.180137	-0.020645	98.076330	0.015966	-0.672880	14.797249	0.277506	-25.108479	-40.616085	30.499256	6.678188	41.704970	29.041063	23.728333	3.932747	43.321828	28.768562	13.179931	-4.408036	51.358166	35.217835	-0.186025	-7.322012	61.560367	41.890462
-0.415000	-160.147433	-5.066637	-73.570646	0.078633	-0.180118	-0.020654	98.083797	0.007477	-0.666364	14.780203	0.296167	-25.123423	-40.631641	30.525750	6.686994	41.689360	29.020030	23.734916	3.930294	43.335864	28.771977	13.176826	-4.411179	51.387971	35.226425	-0.176393	-7.329711	61.573261	41.890524
-0.405000	-160.147433	-5.066637	-73.570646	0.078622	-0.180102	-0.020674	98.088802	-0.006985	-0.663851	14.759008	0.326376	-25.141472	-40.654744	30.550705	6.696859	41.684505	29.009126	23.743550	3.928174	43.349465	28.777045	13.180137	-4.415213	51.413906	35.233880	-0.162543	-7.335610	61.583303	41.884866
-0.395000	-160.147433	-5.066637	-73.570646	0.078610	-0.180087	-0.020708	98.086195	-0.026585	-0.663182	14.729892	0.362281	-25.159542	-40.677384	30.569359	6.705449	41.696358	29.013254	23.754851	3.926385	43.359081	28.781920	13.188267	-4.419009	51.431376	35.238854	-0.149150	-7.337599	61.588662	41.875822
-0.385000	-160.147433	-5.066637	-73.570646	0.078597	-0.180072	-0.020761	98.073820	-0.047291	-0.660255	14.688830	0.394010	-25.175531	-40.691386	30.579224	6.710993	41.722849	29.030625	23.767738	3.925203	43.361624	28.784085	13.198943	-4.420962	51.436601	35.239865	-0.140850	-7.335408	61.588324	41.866316
-0.375000	-160.147433	-5.066637	-73.570646	0.078586	-0.180050	-0.020833	98.053097	-0.063681	-0.650554	14.633595	0.413565	-25.189308	-40.691649	30.581569	6.713405	41.754082	29.053447	23.778514	3.925243	43.357616	28.782679	13.209991	-4.419544	51.428413	35.236202	-0.140455	-7.331653	61.583429	41.859376
-0.365000	-160.147433	-5.066637	-73.570646	0.078577	-0.180014	-0.020925	98.028523	-0.071551	-0.631393	14.564781	0.420394	-25.201893	-40.677405	30.581283	6.714699	41.776847	29.071720	23.781180	3.927047	43.353839	28.780848	13.219783	-4.414223	51.410071	35.229098	-0.147611	-7.331199	61.577303	41.857311
-0.355000	-160.147433	-5.066637	-73.570646	0.078568	-0.179960	-0.021038	98.006631	-0.069945	-0.603234	14.485186	0.422287	-25.213919	-40.651576	30.584354	6.718308	41.781664	29.078471	23.769484	3.930403	43.362407	28.785751	13.226890	-4.406180	51.389586	35.222162	-0.158733	-7.338537	61.573499	41.860421
-0.345000	-160.147433	-5.066637	-73.570646	0.078555	-0.179885	-0.021175	97.994815	-0.061662	-0.568718	14.397868	0.429818	-25.225267	-40.619448	30.593712	6.727460	41.769067	29.073963	23.740504	3.933887	43.394656	28.804908	13.229267	-4.398176	51.377352	35.220263	-0.168318	-7.354481	61.572747	41.865887
-0.335000	-160.147433	-5.066637	-73.570646	0.078528	-0.179784	-0.021345	97.999987	-0.052065	-0.529544	14.303841	0.447300	-25.236721	-40.587799	30.605740	6.743397	41.751950	29.066736	23.698431	3.935073	43.452463	28.840423	13.224330	-4.393483	51.381531	35.227050	-0.170680	-7.374432	61.570943	41.867823
-0.325000	-160.147433	-5.066637	-73.570646	0.078480	-0.179649	-0.021561	98.026666	-0.046604	-0.482978	14.200286	0.466180	-25.252543	-40.564693	30.610114	6.764496	41.752126	29.070553	23.656157	3.931491	43.523296	28.885190	13.211437	-4.394449	51.403263	35.242273	-0.160639	-7.389696	61.560062	41.858937
-0.315000	-160.147433	-5.066637	-73.570646	0.078397	-0.179462	-0.021843	98.074066	-0.047673	-0.420363	14.079641	0.465751	-25.281785	-40.559247	30.594387	6.786893	41.792097	29.098374	23.632755	3.921954	43.584742	28.924956	13.196871	-4.401392	51.434216	35.260343	-0.132310	-7.391444	61.532156	41.833287
-0.305000	-160.147433	-5.066637	-73.570646	0.078264	-0.179200	-0.022220	98.132344	-0.051375	-0.329178	13.929768	0.421647	-25.336775	-40.580373	30.551866	6.806255	41.886196	29.156519	23.647569	3.907562	43.617941	28.946187	13.199029	-4.412095	51.458027	35.271051	-0.076663	-7.375488	61.484623	41.788953
-0.295000	-160.147433	-5.066637	-73.570646	0.078063	-0.178834	-0.022727	98.179200	-0.044851	-0.198261	13.735880	0.317674	-25.428969	-40.634127	30.488447	6.819583	42.036412	29.242562	23.714416	3.891751	43.621533	28.944718	13.249596	-4.421896	51.455618	35.262576	0.020002	-7.345708	61.423973	41.729531
-0.285000	-160.147433	-5.066637	-73.570646	0.077769	-0.178339	-0.023407	98.178756	-0.005156	-0.024008	13.484778	0.154094	-25.563952	-40.720649	30.423665	6.826033	42.235336	29.348297	23.839571	3.879271	43.615537	28.928855	13.387194	-4.424437	51.412835	35.226139	0.174498	-7.314479	61.365706	41.663909
-0.275000	-160.147433	-5.066637	-73.570646	0.077352	-0.177692	-0.024298	98.084495	0.099290	0.185323	13.170045	-0.052586	-25.737794	-40.832159	30.384649	6.826567	42.473350	29.465498	24.024144	3.874582	43.631228	28.914486	13.644211	-4.413198	51.327321	35.160630	0.402078	-7.299310	61.329491	41.604200
-0.265000	-160.147433	-5.066637	-73.570646	0.076776	-0.176880	-0.025434	97.846918	0.304309	0.409286	12.794741	-0.277978	-25.936296	-40.952946	30.396450	6.823156	42.743830	29.589945	24.267930	3.880432	43.693342	28.915780	14.033246	-4.383579	51.210634	35.074598	0.711408	-7.316160	61.331093	41.562078
-0.255000	-160.147433	-5.066637	-73.570646	0.075994	-0.175894	-0.026833	97.424231	0.643400	0.619405	12.368697	-0.501525	-26.137896	-41.061771	30.474259	6.818297	43.041790	29.720580	24.571120	3.897124	43.806107	28.937740	14.541643	-4.334827	51.082911	34.983513	1.102850	-7.371463	61.374625	41.544199
-0.245000	-160.147433	-5.066637	-73.570646	0.074952	-0.174725	-0.028497	96.791717	1.140446	0.786450	11.901131	-0.716542	-26.320221	-41.137181	30.620768	6.815002	43.356756	29.854488	24.932530	3.922369	43.951017	28.974648	15.138114	-4.270987	50.961441	34.902713	1.571083	-7.456289	61.448695	41.547935
